<svg xmlns="http://www.w3.org/2000/svg" viewBox="0 0 100 100" role="img" aria-label="Gritto app icon">
  <defs>
    <linearGradient id="grittoGradient" x1="0%" y1="0%" x2="100%" y2="100%">
      <stop offset="0%" stop-color="#3B82F6" />
      <stop offset="50%" stop-color="#8B5CF6" />
      <stop offset="100%" stop-color="#EC4899" />
    </linearGradient>
  </defs>
  <path d="M20,0L80,0A20,20 0,0 1,100 20L100,80A20,20 0,0 1,80 100L20,100A20,20 0,0 1,0 80L0,20A20,20 0,0 1,20 0z" fill="url(#grittoGradient)" />
  <path d="M50,50m-35,0a35,35 0,1 1,70 0a35,35 0,1 1,-70 0" fill="#000000" fill-opacity="0.4" stroke="#ffffff" stroke-opacity="0.4" stroke-width="3" />
  <path d="M50,50m-22,0a22,22 0,1 1,44 0a22,22 0,1 1,-44 0" fill="#000000" fill-opacity="0.6" stroke="#ffffff" stroke-opacity="0.6" stroke-width="3" />
  <path d="M50,35L52,45L62,47L52,49L50,59L48,49L38,47L48,45Z" fill="#ffffff" fill-opacity="0.95" />
  <path d="M70,30L71,33L74,34L71,35L70,38L69,35L66,34L69,33Z" fill="#ffffff" fill-opacity="0.8" />
  <path d="M30,70L31,73L34,74L31,75L30,78L29,75L26,74L29,73Z" fill="#ffffff" fill-opacity="0.7" />
</svg>
